<svg width="26.000000" height="26.000000" viewBox="0 0 26 26" fill="none" xmlns="http://www.w3.org/2000/svg" xmlns:xlink="http://www.w3.org/1999/xlink">
	<desc>
		Exit Icon
	</desc>
	<defs/>
	<circle id="Ellipse 137" cx="13.000000" cy="13.000000" r="13.000000" fill="#FFFFFF" fill-opacity="1.000000"/>
	<path id="Vector" d="M20.73 12.98C20.7 10.71 19.92 8.77 18.39 7.16C18.35 7.12 18.31 7.07 18.26 7.02C17.73 6.41 16.84 6.3 16.2 6.77C15.54 7.24 15.32 8.11 15.68 8.84C15.77 9.02 15.9 9.18 16.04 9.32C17.39 10.68 17.92 12.32 17.44 14.23C16.99 16.05 15.83 17.25 14.12 17.79C12.45 18.32 10.9 17.99 9.55 16.85C8.39 15.88 7.79 14.58 7.77 13.02C7.75 11.79 8.16 10.71 8.93 9.77C9.03 9.65 9.16 9.56 9.26 9.45C9.69 8.99 9.81 8.43 9.62 7.83C9.43 7.22 9 6.85 8.4 6.73C7.93 6.63 7.51 6.76 7.13 7.07C6.46 7.6 6 8.31 5.6 9.06C4.91 10.36 4.59 11.77 4.64 13.25C4.7 15.07 5.28 16.69 6.36 18.11C7.39 19.44 8.69 20.39 10.26 20.87C12.91 21.69 15.39 21.26 17.61 19.52C19.06 18.39 20.01 16.88 20.48 15.06C20.66 14.38 20.73 13.68 20.73 12.98Z" fill="#FE724C" fill-opacity="1.000000" fill-rule="nonzero"/>
	<path id="Vector" d="M20.73 12.98C20.7 10.71 19.92 8.77 18.39 7.16C18.35 7.12 18.31 7.07 18.26 7.02C17.73 6.41 16.84 6.3 16.2 6.77C15.54 7.24 15.32 8.11 15.68 8.84C15.77 9.02 15.9 9.18 16.04 9.32C17.39 10.68 17.92 12.32 17.44 14.23C16.99 16.05 15.83 17.25 14.12 17.79C12.45 18.32 10.9 17.99 9.55 16.85C8.39 15.88 7.79 14.58 7.77 13.02C7.75 11.79 8.16 10.71 8.93 9.77C9.03 9.65 9.16 9.56 9.26 9.45C9.69 8.99 9.81 8.43 9.62 7.83C9.43 7.22 9 6.85 8.4 6.73C7.93 6.63 7.51 6.76 7.13 7.07C6.46 7.6 6 8.31 5.6 9.06C4.91 10.36 4.59 11.77 4.64 13.25C4.7 15.07 5.28 16.69 6.36 18.11C7.39 19.44 8.69 20.39 10.26 20.87C12.91 21.69 15.39 21.26 17.61 19.52C19.06 18.39 20.01 16.88 20.48 15.06C20.66 14.38 20.73 13.68 20.73 12.98ZM19.29 9.91Q18.77 8.72 17.81 7.71L17.81 7.71Q17.77 7.67 17.71 7.6Q17.68 7.56 17.67 7.55Q17.55 7.42 17.4 7.35Q17.3 7.3 17.17 7.29Q17.02 7.27 16.88 7.31Q16.77 7.34 16.66 7.42Q16.53 7.51 16.45 7.64Q16.37 7.76 16.33 7.9Q16.3 8.05 16.31 8.19Q16.33 8.34 16.4 8.48Q16.46 8.61 16.61 8.75Q17.78 9.94 18.19 11.34Q18.26 11.57 18.31 11.81Q18.56 13.06 18.22 14.42Q17.87 15.81 17.05 16.8Q16.95 16.92 16.84 17.04Q16.69 17.19 16.54 17.33Q15.64 18.15 14.36 18.55Q13.16 18.93 12.02 18.8Q11.79 18.78 11.55 18.73Q11.45 18.7 11.34 18.68Q10.11 18.37 9.03 17.46Q8.28 16.83 7.79 16.03Q7.63 15.77 7.51 15.49Q7.49 15.46 7.48 15.43Q6.99 14.34 6.97 13.03Q6.96 12.26 7.15 11.53Q7.21 11.27 7.31 11.01Q7.64 10.08 8.31 9.27Q8.4 9.15 8.58 8.99Q8.65 8.93 8.67 8.91Q8.85 8.72 8.89 8.52Q8.93 8.32 8.86 8.06Q8.78 7.83 8.63 7.69Q8.49 7.56 8.24 7.51Q8.09 7.48 7.95 7.52Q7.95 7.52 7.94 7.52Q7.79 7.56 7.63 7.69Q7.25 7.99 6.91 8.45Q6.63 8.84 6.31 9.44Q5.96 10.09 5.75 10.79Q5.4 11.95 5.44 13.23Q5.49 14.56 5.93 15.73Q6.32 16.73 7 17.62Q8.03 18.96 9.38 19.66Q9.91 19.93 10.49 20.11Q12.34 20.67 14.01 20.35Q15.65 20.04 17.12 18.89Q17.84 18.33 18.38 17.63Q19.3 16.44 19.7 14.86Q19.93 13.99 19.93 12.97Q19.91 11.31 19.29 9.91Z" fill="#FFFFFF" fill-opacity="1.000000" fill-rule="evenodd"/>
</svg>

